<svg width="53" height="53" viewBox="0 0 53 53" fill="none" xmlns="http://www.w3.org/2000/svg">
<path d="M22.6053 2.91382L7.64387 11.7383C6.53892 12.3527 5.6184 13.2515 4.97772 14.3414C4.33704 15.4314 3.99951 16.6728 4.00012 17.9371V34.0248C4.00184 35.3017 4.34669 36.5546 4.99858 37.6525C5.65048 38.7504 6.58546 39.6529 7.70571 40.2656L22.4905 49.6223C24.7739 50.881 27.393 50.881 29.5572 49.6929L44.5827 40.1927C46.7468 39.0068 48.1668 36.6196 48.1668 34.0248V17.9393L48.1558 17.4888C48.0952 16.4558 47.8101 15.4485 47.3204 14.537C46.8307 13.6254 46.1481 12.8316 45.3203 12.2109L45.084 12.0453L45.0685 12.0298C44.9459 11.9182 44.8119 11.8198 44.6688 11.7361L29.7051 2.91382C28.6176 2.31414 27.396 1.99963 26.1541 1.99963C24.9123 1.99963 23.6906 2.31414 22.6031 2.91382H22.6053Z" fill="#C1C6C8" stroke="white" stroke-linecap="round" stroke-linejoin="round"/>
</svg>
