<svg width="24" height="24" viewBox="0 0 24 24" fill="none" xmlns="http://www.w3.org/2000/svg">
<g clip-path="url(#clip0_1_1579)">
<path fill-rule="evenodd" clip-rule="evenodd" d="M10.2322 4.23223C10.701 3.76339 11.3369 3.5 11.9999 3.5C12.663 3.5 13.2989 3.76339 13.7677 4.23223C14.2366 4.70107 14.4999 5.33696 14.4999 6C14.4999 6.27614 14.2761 6.5 13.9999 6.5C13.7238 6.5 13.4999 6.27614 13.4999 6C13.4999 5.60218 13.3419 5.22064 13.0606 4.93934C12.7793 4.65804 12.3978 4.5 11.9999 4.5C11.6021 4.5 11.2206 4.65804 10.9393 4.93934C10.658 5.22064 10.4999 5.60218 10.4999 6C10.4999 7.50695 11.0938 8.6911 12.2955 9.59668L20.2057 13.9909C20.5956 14.2074 20.9205 14.5243 21.1467 14.9088C21.3728 15.2931 21.492 15.731 21.4919 16.177C21.4919 16.177 21.4919 16.177 21.4919 16.177V17C21.4919 17.663 21.2285 18.2989 20.7597 18.7678C20.2909 19.2366 19.655 19.5 18.9919 19.5H4.99194C4.3289 19.5 3.69302 19.2366 3.22418 18.7678C2.75534 18.2989 2.49194 17.663 2.49194 17L2.49194 16.1771C2.49194 16.1771 2.49194 16.1772 2.49194 16.1771C2.49185 15.7312 2.61106 15.2931 2.8372 14.9088C3.06337 14.5243 3.38827 14.2074 3.77819 13.9909L11.1231 9.91069C10.0482 8.87853 9.49994 7.56603 9.49994 6C9.49994 5.33696 9.76334 4.70107 10.2322 4.23223ZM11.9919 10.572L4.26375 14.8651C4.02979 14.995 3.8348 15.1852 3.6991 15.4158C3.5634 15.6465 3.49187 15.9093 3.49194 16.1769V17C3.49194 17.3978 3.64998 17.7794 3.93128 18.0607C4.21259 18.342 4.59412 18.5 4.99194 18.5H18.9919C19.3898 18.5 19.7713 18.342 20.0526 18.0607C20.3339 17.7794 20.4919 17.3978 20.4919 17V16.177C20.492 15.9094 20.4205 15.6465 20.2848 15.4158C20.1491 15.1852 19.9541 14.995 19.7202 14.8651L11.9919 10.572Z" fill="#C1C6C8"/>
</g>
<defs>
<clipPath id="clip0_1_1579">
<rect width="24" height="24" fill="white"/>
</clipPath>
</defs>
</svg>
