<svg width="24" height="24" viewBox="0 0 24 24" fill="none" xmlns="http://www.w3.org/2000/svg">
<g clip-path="url(#clip0_2_475)">
<path fill-rule="evenodd" clip-rule="evenodd" d="M3.5 4C3.5 3.72386 3.72386 3.5 4 3.5H20C20.2761 3.5 20.5 3.72386 20.5 4C20.5 4.27614 20.2761 4.5 20 4.5H4C3.72386 4.5 3.5 4.27614 3.5 4Z" fill="black"/>
<path fill-rule="evenodd" clip-rule="evenodd" d="M3.5 12C3.5 11.7239 3.72386 11.5 4 11.5H20C20.2761 11.5 20.5 11.7239 20.5 12C20.5 12.2761 20.2761 12.5 20 12.5H4C3.72386 12.5 3.5 12.2761 3.5 12Z" fill="black"/>
<path fill-rule="evenodd" clip-rule="evenodd" d="M3.5 20C3.5 19.7239 3.72386 19.5 4 19.5H20C20.2761 19.5 20.5 19.7239 20.5 20C20.5 20.2761 20.2761 20.5 20 20.5H4C3.72386 20.5 3.5 20.2761 3.5 20Z" fill="black"/>
</g>
<defs>
<clipPath id="clip0_2_475">
<rect width="24" height="24" fill="white"/>
</clipPath>
</defs>
</svg>
