<svg width="24" height="24" viewBox="0 0 24 24" fill="none" xmlns="http://www.w3.org/2000/svg">
<g clip-path="url(#clip0_1_1615)">
<path fill-rule="evenodd" clip-rule="evenodd" d="M8.36451 3.22314C9.5171 2.74572 10.7524 2.5 12 2.5C13.2476 2.5 14.4829 2.74572 15.6355 3.22314C16.7881 3.70056 17.8354 4.40033 18.7175 5.28249C19.5997 6.16464 20.2994 7.21191 20.7769 8.36451C21.2543 9.5171 21.5 10.7524 21.5 12C21.5 13.2476 21.2543 14.4829 20.7769 15.6355C20.2994 16.7881 19.5997 17.8354 18.7175 18.7175C18.547 18.8881 18.3703 19.0518 18.1878 19.2084C18.1688 19.2275 18.1481 19.2452 18.1258 19.2611C17.3799 19.8905 16.5401 20.4021 15.6355 20.7769C14.4829 21.2543 13.2476 21.5 12 21.5C10.7524 21.5 9.5171 21.2543 8.36451 20.7769C7.21191 20.2994 6.16464 19.5997 5.28249 18.7175C4.40033 17.8354 3.70056 16.7881 3.22314 15.6355C2.74572 14.4829 2.5 13.2476 2.5 12C2.5 10.7524 2.74572 9.5171 3.22314 8.36451C3.70056 7.21191 4.40033 6.16464 5.28249 5.28249C6.16464 4.40033 7.21191 3.70056 8.36451 3.22314ZM18.0286 17.9922C18.8093 17.2067 19.4291 16.2761 19.853 15.2528C20.2801 14.2215 20.5 13.1162 20.5 12C20.5 10.8838 20.2801 9.77846 19.853 8.74719C19.4258 7.71592 18.7997 6.77889 18.0104 5.98959C17.2211 5.20029 16.2841 4.57419 15.2528 4.14702C14.2215 3.71986 13.1162 3.5 12 3.5C10.8838 3.5 9.77846 3.71986 8.74719 4.14702C7.71592 4.57419 6.77889 5.20029 5.98959 5.98959C5.20029 6.77889 4.57419 7.71592 4.14702 8.74719C3.71986 9.77846 3.5 10.8838 3.5 12C3.5 13.1162 3.71986 14.2215 4.14702 15.2528C4.57092 16.2762 5.19073 17.2068 5.97151 17.9923C6.28525 17.3629 6.74386 16.8125 7.31389 16.3887C8.09042 15.8114 9.03235 15.4997 9.99997 15.5M6.754 18.688C6.99404 18.0943 7.39332 17.5758 7.91054 17.1912C8.51453 16.7422 9.24719 16.4998 9.99982 16.5H14C14.7536 16.4997 15.4873 16.7427 16.0917 17.1928C16.6079 17.5772 17.0064 18.0951 17.2461 18.6879C16.639 19.1641 15.9686 19.5565 15.2528 19.853C14.2215 20.2801 13.1162 20.5 12 20.5C10.8838 20.5 9.77846 20.2801 8.74719 19.853C8.03144 19.5565 7.36108 19.1642 6.754 18.688ZM18.0286 17.9922C17.7154 17.3639 17.2578 16.8143 16.689 16.3908C15.9119 15.8121 14.9688 15.4997 14 15.5C13.9999 15.5 14 15.5 14 15.5H9.99997M9.52513 7.52513C10.1815 6.86875 11.0717 6.5 12 6.5C12.9283 6.5 13.8185 6.86875 14.4749 7.52513C15.1313 8.1815 15.5 9.07174 15.5 10C15.5 10.9283 15.1313 11.8185 14.4749 12.4749C13.8185 13.1313 12.9283 13.5 12 13.5C11.0717 13.5 10.1815 13.1313 9.52513 12.4749C8.86875 11.8185 8.5 10.9283 8.5 10C8.5 9.07174 8.86875 8.1815 9.52513 7.52513ZM12 7.5C11.337 7.5 10.7011 7.76339 10.2322 8.23223C9.76339 8.70107 9.5 9.33696 9.5 10C9.5 10.663 9.76339 11.2989 10.2322 11.7678C10.7011 12.2366 11.337 12.5 12 12.5C12.663 12.5 13.2989 12.2366 13.7678 11.7678C14.2366 11.2989 14.5 10.663 14.5 10C14.5 9.33696 14.2366 8.70107 13.7678 8.23223C13.2989 7.76339 12.663 7.5 12 7.5Z" fill="#C1C6C8"/>
</g>
<defs>
<clipPath id="clip0_1_1615">
<rect width="24" height="24" fill="white"/>
</clipPath>
</defs>
</svg>
