<svg width="24" height="24" viewBox="0 0 24 24" fill="none" xmlns="http://www.w3.org/2000/svg">
<g clip-path="url(#clip0_1_1589)">
<path fill-rule="evenodd" clip-rule="evenodd" d="M12 3.5C11.6022 3.5 11.2207 3.65804 10.9394 3.93934C10.6581 4.22064 10.5 4.60218 10.5 5C10.5 5.19335 10.3886 5.36936 10.2138 5.45201C9.1474 5.95625 8.23834 6.74117 7.58402 7.72265C6.93183 8.70093 6.55724 9.83773 6.50005 11.0119V14C6.50005 14.0201 6.49884 14.0401 6.49642 14.0601C6.41176 14.7595 6.16406 15.4293 5.77326 16.0155C5.65975 16.1857 5.53509 16.3476 5.40032 16.5H8.99865C8.99911 16.5 8.99958 16.5 9.00005 16.5C9.00051 16.5 9.00098 16.5 9.00144 16.5H14.9986C14.9991 16.5 14.9996 16.5 15 16.5C15.0005 16.5 15.001 16.5 15.0014 16.5H18.5998C18.465 16.3476 18.3403 16.1857 18.2268 16.0155C17.836 15.4293 17.5883 14.7595 17.5037 14.0601C17.5013 14.0401 17.5 14.0201 17.5 14V11.0119C17.4428 9.83773 17.0683 8.70093 16.4161 7.72265C15.7618 6.74117 14.8527 5.95625 13.7863 5.45201C13.6115 5.36936 13.5 5.19335 13.5 5C13.5 4.60218 13.342 4.22064 13.0607 3.93934C12.7794 3.65804 12.3979 3.5 12 3.5ZM14.5 17.5H9.50005V18C9.50005 18.663 9.76344 19.2989 10.2323 19.7678C10.7011 20.2366 11.337 20.5 12 20.5C12.6631 20.5 13.299 20.2366 13.7678 19.7678C14.2367 19.2989 14.5 18.663 14.5 18V17.5ZM8.50005 17.5V18C8.50005 18.9283 8.86879 19.8185 9.52517 20.4749C10.1815 21.1313 11.0718 21.5 12 21.5C12.9283 21.5 13.8185 21.1313 14.4749 20.4749C15.1313 19.8185 15.5 18.9283 15.5 18V17.5H20C20.2271 17.5 20.4257 17.347 20.4835 17.1274C20.5414 16.9078 20.444 16.6768 20.2464 16.5649C19.7696 16.2949 19.3628 15.9167 19.0589 15.4608C18.7603 15.0129 18.5691 14.5024 18.5 13.9688V11C18.5 10.9922 18.4999 10.9844 18.4995 10.9766C18.4357 9.61699 18.0031 8.30042 17.2481 7.16795C16.5481 6.1179 15.5953 5.26284 14.4795 4.68013C14.4092 4.13509 14.1606 3.62503 13.7678 3.23223C13.299 2.76339 12.6631 2.5 12 2.5C11.337 2.5 10.7011 2.76339 10.2323 3.23223C9.83948 3.62503 9.59089 4.13509 9.52058 4.68013C8.40475 5.26283 7.452 6.1179 6.75197 7.16795C5.99699 8.30042 5.56441 9.61699 5.5006 10.9766C5.50023 10.9844 5.50005 10.9922 5.50005 11V13.9688C5.43095 14.5024 5.23977 15.0129 4.94121 15.4608C4.63725 15.9167 4.23049 16.2949 3.75367 16.5649C3.55607 16.6768 3.45869 16.9078 3.51655 17.1274C3.5744 17.347 3.77297 17.5 4.00005 17.5H8.50005Z" fill="#C1C6C8"/>
</g>
<defs>
<clipPath id="clip0_1_1589">
<rect width="24" height="24" fill="white"/>
</clipPath>
</defs>
</svg>
