<svg width="24" height="24" viewBox="0 0 24 24" fill="none" xmlns="http://www.w3.org/2000/svg">
<path fill-rule="evenodd" clip-rule="evenodd" d="M5.81802 3.81802C6.66193 2.97411 7.80653 2.5 9 2.5C10.1935 2.5 11.3381 2.97411 12.182 3.81802C13.0259 4.66193 13.5 5.80653 13.5 7C13.5 8.19347 13.0259 9.33807 12.182 10.182C11.3381 11.0259 10.1935 11.5 9 11.5C7.80653 11.5 6.66193 11.0259 5.81802 10.182C4.97411 9.33807 4.5 8.19347 4.5 7C4.5 5.80653 4.97411 4.66193 5.81802 3.81802ZM9 3.5C8.07174 3.5 7.1815 3.86875 6.52513 4.52513C5.86875 5.1815 5.5 6.07174 5.5 7C5.5 7.92826 5.86875 8.8185 6.52513 9.47487C7.1815 10.1313 8.07174 10.5 9 10.5C9.92826 10.5 10.8185 10.1313 11.4749 9.47487C12.1313 8.8185 12.5 7.92826 12.5 7C12.5 6.07174 12.1313 5.1815 11.4749 4.52513C10.8185 3.86875 9.92826 3.5 9 3.5ZM15.5156 3.00598C15.5841 2.73847 15.8565 2.57713 16.124 2.64563C17.092 2.89346 17.9499 3.45641 18.5626 4.24572C19.1753 5.03503 19.5078 6.00581 19.5078 7.005C19.5078 8.00419 19.1753 8.97497 18.5626 9.76428C17.9499 10.5536 17.092 11.1165 16.124 11.3644C15.8565 11.4329 15.5841 11.2715 15.5156 11.004C15.4471 10.7365 15.6085 10.4641 15.876 10.3956C16.6288 10.2029 17.2961 9.76501 17.7727 9.1511C18.2492 8.5372 18.5078 7.78215 18.5078 7.005C18.5078 6.22785 18.2492 5.47281 17.7727 4.8589C17.2961 4.24499 16.6288 3.80714 15.876 3.61438C15.6085 3.54588 15.4471 3.27349 15.5156 3.00598ZM7 15.5C6.07174 15.5 5.1815 15.8687 4.52513 16.5251C3.86875 17.1815 3.5 18.0717 3.5 19V21C3.5 21.2761 3.27614 21.5 3 21.5C2.72386 21.5 2.5 21.2761 2.5 21V19C2.5 17.8065 2.97411 16.6619 3.81802 15.818C4.66193 14.9741 5.80653 14.5 7 14.5H11C12.1935 14.5 13.3381 14.9741 14.182 15.818C15.0259 16.6619 15.5 17.8065 15.5 19V21C15.5 21.2761 15.2761 21.5 15 21.5C14.7239 21.5 14.5 21.2761 14.5 21V19C14.5 18.0717 14.1313 17.1815 13.4749 16.5251C12.8185 15.8687 11.9283 15.5 11 15.5H7ZM17.5159 15.025C17.5849 14.7576 17.8576 14.5968 18.125 14.6659C19.0867 14.9142 19.9392 15.4736 20.5497 16.2571C21.1601 17.0405 21.4943 18.0039 21.5 18.9971L21.5 19L21.5 21C21.5 21.2761 21.2761 21.5 21 21.5C20.7239 21.5 20.5 21.2761 20.5 21V19.0016C20.4953 18.2296 20.2354 17.4807 19.7609 16.8717C19.2861 16.2624 18.623 15.8272 17.875 15.6341C17.6076 15.5651 17.4468 15.2924 17.5159 15.025Z" fill="#C1C6C8"/>
</svg>
