<svg width="53" height="53" viewBox="0 0 53 53" fill="none" xmlns="http://www.w3.org/2000/svg">
<path d="M22.6053 2.91369L7.64387 11.7382C6.53892 12.3526 5.6184 13.2514 4.97772 14.3413C4.33704 15.4312 3.99951 16.6727 4.00012 17.937V34.0247C4.00184 35.3015 4.34669 36.5545 4.99858 37.6523C5.65048 38.7502 6.58546 39.6527 7.70571 40.2654L22.4905 49.6222C24.7739 50.8809 27.393 50.8809 29.5572 49.6928L44.5827 40.1926C46.7468 39.0067 48.1668 36.6195 48.1668 34.0247V17.9392L48.1558 17.4887C48.0952 16.4557 47.8101 15.4484 47.3204 14.5368C46.8307 13.6253 46.1481 12.8315 45.3203 12.2108L45.084 12.0452L45.0685 12.0297C44.9459 11.9181 44.8119 11.8196 44.6688 11.736L29.7051 2.91369C28.6176 2.31402 27.396 1.99951 26.1541 1.99951C24.9123 1.99951 23.6906 2.31402 22.6031 2.91369H22.6053Z" fill="black" stroke="white" stroke-linecap="round" stroke-linejoin="round"/>
</svg>
