<svg width="137" height="137" viewBox="0 0 137 137" fill="none" xmlns="http://www.w3.org/2000/svg">
<g filter="url(#filter0_d_2_470)">
<rect x="8" y="4" width="121" height="121" rx="11" fill="white"/>
<path d="M16.3448 12.3447H20.5173V16.5171H16.3448V12.3447Z" fill="black"/>
<path d="M20.5173 12.3447H24.6897V16.5171H20.5173V12.3447Z" fill="black"/>
<path d="M24.6897 12.3447H28.8621V16.5171H24.6897V12.3447Z" fill="black"/>
<path d="M28.8621 12.3447H33.0345V16.5171H28.8621V12.3447Z" fill="black"/>
<path d="M33.0345 12.3447H37.2069V16.5171H33.0345V12.3447Z" fill="black"/>
<path d="M37.2069 12.3447H41.3793V16.5171H37.2069V12.3447Z" fill="black"/>
<path d="M41.3793 12.3447H45.5517V16.5171H41.3793V12.3447Z" fill="black"/>
<path d="M49.7242 12.3447H53.8966V16.5171H49.7242V12.3447Z" fill="black"/>
<path d="M62.2414 12.3447H66.4138V16.5171H62.2414V12.3447Z" fill="black"/>
<path d="M66.4138 12.3447H70.5862V16.5171H66.4138V12.3447Z" fill="black"/>
<path d="M91.4483 12.3447H95.6207V16.5171H91.4483V12.3447Z" fill="black"/>
<path d="M95.6207 12.3447H99.7931V16.5171H95.6207V12.3447Z" fill="black"/>
<path d="M99.7931 12.3447H103.966V16.5171H99.7931V12.3447Z" fill="black"/>
<path d="M103.966 12.3447H108.138V16.5171H103.966V12.3447Z" fill="black"/>
<path d="M108.138 12.3447H112.31V16.5171H108.138V12.3447Z" fill="black"/>
<path d="M112.31 12.3447H116.483V16.5171H112.31V12.3447Z" fill="black"/>
<path d="M116.483 12.3447H120.655V16.5171H116.483V12.3447Z" fill="black"/>
<path d="M16.3448 16.5171H20.5173V20.6896H16.3448V16.5171Z" fill="black"/>
<path d="M41.3793 16.5171H45.5517V20.6896H41.3793V16.5171Z" fill="black"/>
<path d="M49.7242 16.5171H53.8966V20.6896H49.7242V16.5171Z" fill="black"/>
<path d="M53.8966 16.5171H58.069V20.6896H53.8966V16.5171Z" fill="black"/>
<path d="M62.2414 16.5171H66.4138V20.6896H62.2414V16.5171Z" fill="black"/>
<path d="M70.5862 16.5171H74.7586V20.6896H70.5862V16.5171Z" fill="black"/>
<path d="M74.7586 16.5171H78.9311V20.6896H74.7586V16.5171Z" fill="black"/>
<path d="M78.9311 16.5171H83.1035V20.6896H78.9311V16.5171Z" fill="black"/>
<path d="M83.1035 16.5171H87.2759V20.6896H83.1035V16.5171Z" fill="black"/>
<path d="M91.4483 16.5171H95.6207V20.6896H91.4483V16.5171Z" fill="black"/>
<path d="M116.483 16.5171H120.655V20.6896H116.483V16.5171Z" fill="black"/>
<path d="M16.3448 20.6896H20.5173V24.862H16.3448V20.6896Z" fill="black"/>
<path d="M24.6897 20.6896H28.8621V24.862H24.6897V20.6896Z" fill="black"/>
<path d="M28.8621 20.6896H33.0345V24.862H28.8621V20.6896Z" fill="black"/>
<path d="M33.0345 20.6896H37.2069V24.862H33.0345V20.6896Z" fill="black"/>
<path d="M41.3793 20.6896H45.5517V24.862H41.3793V20.6896Z" fill="black"/>
<path d="M53.8966 20.6896H58.069V24.862H53.8966V20.6896Z" fill="black"/>
<path d="M62.2414 20.6896H66.4138V24.862H62.2414V20.6896Z" fill="black"/>
<path d="M66.4138 20.6896H70.5862V24.862H66.4138V20.6896Z" fill="black"/>
<path d="M74.7586 20.6896H78.9311V24.862H74.7586V20.6896Z" fill="black"/>
<path d="M78.9311 20.6896H83.1035V24.862H78.9311V20.6896Z" fill="black"/>
<path d="M91.4483 20.6896H95.6207V24.862H91.4483V20.6896Z" fill="black"/>
<path d="M99.7931 20.6896H103.966V24.862H99.7931V20.6896Z" fill="black"/>
<path d="M103.966 20.6896H108.138V24.862H103.966V20.6896Z" fill="black"/>
<path d="M108.138 20.6896H112.31V24.862H108.138V20.6896Z" fill="black"/>
<path d="M116.483 20.6896H120.655V24.862H116.483V20.6896Z" fill="black"/>
<path d="M16.3448 24.862H20.5173V29.0344H16.3448V24.862Z" fill="black"/>
<path d="M24.6897 24.862H28.8621V29.0344H24.6897V24.862Z" fill="black"/>
<path d="M28.8621 24.862H33.0345V29.0344H28.8621V24.862Z" fill="black"/>
<path d="M33.0345 24.862H37.2069V29.0344H33.0345V24.862Z" fill="black"/>
<path d="M41.3793 24.862H45.5517V29.0344H41.3793V24.862Z" fill="black"/>
<path d="M49.7242 24.862H53.8966V29.0344H49.7242V24.862Z" fill="black"/>
<path d="M53.8966 24.862H58.069V29.0344H53.8966V24.862Z" fill="black"/>
<path d="M58.069 24.862H62.2414V29.0344H58.069V24.862Z" fill="black"/>
<path d="M70.5862 24.862H74.7586V29.0344H70.5862V24.862Z" fill="black"/>
<path d="M74.7586 24.862H78.9311V29.0344H74.7586V24.862Z" fill="black"/>
<path d="M83.1035 24.862H87.2759V29.0344H83.1035V24.862Z" fill="black"/>
<path d="M91.4483 24.862H95.6207V29.0344H91.4483V24.862Z" fill="black"/>
<path d="M99.7931 24.862H103.966V29.0344H99.7931V24.862Z" fill="black"/>
<path d="M103.966 24.862H108.138V29.0344H103.966V24.862Z" fill="black"/>
<path d="M108.138 24.862H112.31V29.0344H108.138V24.862Z" fill="black"/>
<path d="M116.483 24.862H120.655V29.0344H116.483V24.862Z" fill="black"/>
<path d="M16.3448 29.0344H20.5173V33.2068H16.3448V29.0344Z" fill="black"/>
<path d="M24.6897 29.0344H28.8621V33.2068H24.6897V29.0344Z" fill="black"/>
<path d="M28.8621 29.0344H33.0345V33.2068H28.8621V29.0344Z" fill="black"/>
<path d="M33.0345 29.0344H37.2069V33.2068H33.0345V29.0344Z" fill="black"/>
<path d="M41.3793 29.0344H45.5517V33.2068H41.3793V29.0344Z" fill="black"/>
<path d="M49.7242 29.0344H53.8966V33.2068H49.7242V29.0344Z" fill="black"/>
<path d="M53.8966 29.0344H58.069V33.2068H53.8966V29.0344Z" fill="black"/>
<path d="M58.069 29.0344H62.2414V33.2068H58.069V29.0344Z" fill="black"/>
<path d="M62.2414 29.0344H66.4138V33.2068H62.2414V29.0344Z" fill="black"/>
<path d="M66.4138 29.0344H70.5862V33.2068H66.4138V29.0344Z" fill="black"/>
<path d="M70.5862 29.0344H74.7586V33.2068H70.5862V29.0344Z" fill="black"/>
<path d="M74.7586 29.0344H78.9311V33.2068H74.7586V29.0344Z" fill="black"/>
<path d="M83.1035 29.0344H87.2759V33.2068H83.1035V29.0344Z" fill="black"/>
<path d="M91.4483 29.0344H95.6207V33.2068H91.4483V29.0344Z" fill="black"/>
<path d="M99.7931 29.0344H103.966V33.2068H99.7931V29.0344Z" fill="black"/>
<path d="M103.966 29.0344H108.138V33.2068H103.966V29.0344Z" fill="black"/>
<path d="M108.138 29.0344H112.31V33.2068H108.138V29.0344Z" fill="black"/>
<path d="M116.483 29.0344H120.655V33.2068H116.483V29.0344Z" fill="black"/>
<path d="M16.3448 33.2068H20.5173V37.3792H16.3448V33.2068Z" fill="black"/>
<path d="M41.3793 33.2068H45.5517V37.3792H41.3793V33.2068Z" fill="black"/>
<path d="M49.7242 33.2068H53.8966V37.3792H49.7242V33.2068Z" fill="black"/>
<path d="M58.069 33.2068H62.2414V37.3792H58.069V33.2068Z" fill="black"/>
<path d="M70.5862 33.2068H74.7586V37.3792H70.5862V33.2068Z" fill="black"/>
<path d="M74.7586 33.2068H78.9311V37.3792H74.7586V33.2068Z" fill="black"/>
<path d="M91.4483 33.2068H95.6207V37.3792H91.4483V33.2068Z" fill="black"/>
<path d="M116.483 33.2068H120.655V37.3792H116.483V33.2068Z" fill="black"/>
<path d="M16.3448 37.3792H20.5173V41.5516H16.3448V37.3792Z" fill="black"/>
<path d="M20.5173 37.3792H24.6897V41.5516H20.5173V37.3792Z" fill="black"/>
<path d="M24.6897 37.3792H28.8621V41.5516H24.6897V37.3792Z" fill="black"/>
<path d="M28.8621 37.3792H33.0345V41.5516H28.8621V37.3792Z" fill="black"/>
<path d="M33.0345 37.3792H37.2069V41.5516H33.0345V37.3792Z" fill="black"/>
<path d="M37.2069 37.3792H41.3793V41.5516H37.2069V37.3792Z" fill="black"/>
<path d="M41.3793 37.3792H45.5517V41.5516H41.3793V37.3792Z" fill="black"/>
<path d="M49.7242 37.3792H53.8966V41.5516H49.7242V37.3792Z" fill="black"/>
<path d="M58.069 37.3792H62.2414V41.5516H58.069V37.3792Z" fill="black"/>
<path d="M66.4138 37.3792H70.5862V41.5516H66.4138V37.3792Z" fill="black"/>
<path d="M74.7586 37.3792H78.9311V41.5516H74.7586V37.3792Z" fill="black"/>
<path d="M83.1035 37.3792H87.2759V41.5516H83.1035V37.3792Z" fill="black"/>
<path d="M91.4483 37.3792H95.6207V41.5516H91.4483V37.3792Z" fill="black"/>
<path d="M95.6207 37.3792H99.7931V41.5516H95.6207V37.3792Z" fill="black"/>
<path d="M99.7931 37.3792H103.966V41.5516H99.7931V37.3792Z" fill="black"/>
<path d="M103.966 37.3792H108.138V41.5516H103.966V37.3792Z" fill="black"/>
<path d="M108.138 37.3792H112.31V41.5516H108.138V37.3792Z" fill="black"/>
<path d="M112.31 37.3792H116.483V41.5516H112.31V37.3792Z" fill="black"/>
<path d="M116.483 37.3792H120.655V41.5516H116.483V37.3792Z" fill="black"/>
<path d="M58.069 41.5516H62.2414V45.724H58.069V41.5516Z" fill="black"/>
<path d="M66.4138 41.5516H70.5862V45.724H66.4138V41.5516Z" fill="black"/>
<path d="M70.5862 41.5516H74.7586V45.724H70.5862V41.5516Z" fill="black"/>
<path d="M78.9311 41.5516H83.1035V45.724H78.9311V41.5516Z" fill="black"/>
<path d="M28.8621 45.724H33.0345V49.8964H28.8621V45.724Z" fill="black"/>
<path d="M41.3793 45.724H45.5517V49.8964H41.3793V45.724Z" fill="black"/>
<path d="M53.8966 45.724H58.069V49.8964H53.8966V45.724Z" fill="black"/>
<path d="M62.2414 45.724H66.4138V49.8964H62.2414V45.724Z" fill="black"/>
<path d="M78.9311 45.724H83.1035V49.8964H78.9311V45.724Z" fill="black"/>
<path d="M95.6207 45.724H99.7931V49.8964H95.6207V45.724Z" fill="black"/>
<path d="M99.7931 45.724H103.966V49.8964H99.7931V45.724Z" fill="black"/>
<path d="M103.966 45.724H108.138V49.8964H103.966V45.724Z" fill="black"/>
<path d="M112.31 45.724H116.483V49.8964H112.31V45.724Z" fill="black"/>
<path d="M116.483 45.724H120.655V49.8964H116.483V45.724Z" fill="black"/>
<path d="M16.3448 49.8964H20.5173V54.0689H16.3448V49.8964Z" fill="black"/>
<path d="M24.6897 49.8964H28.8621V54.0689H24.6897V49.8964Z" fill="black"/>
<path d="M28.8621 49.8964H33.0345V54.0689H28.8621V49.8964Z" fill="black"/>
<path d="M33.0345 49.8964H37.2069V54.0689H33.0345V49.8964Z" fill="black"/>
<path d="M45.5517 49.8964H49.7242V54.0689H45.5517V49.8964Z" fill="black"/>
<path d="M49.7242 49.8964H53.8966V54.0689H49.7242V49.8964Z" fill="black"/>
<path d="M83.1035 49.8964H87.2759V54.0689H83.1035V49.8964Z" fill="black"/>
<path d="M87.2759 49.8964H91.4483V54.0689H87.2759V49.8964Z" fill="black"/>
<path d="M91.4483 49.8964H95.6207V54.0689H91.4483V49.8964Z" fill="black"/>
<path d="M116.483 49.8964H120.655V54.0689H116.483V49.8964Z" fill="black"/>
<path d="M16.3448 54.0689H20.5173V58.2413H16.3448V54.0689Z" fill="black"/>
<path d="M24.6897 54.0689H28.8621V58.2413H24.6897V54.0689Z" fill="black"/>
<path d="M37.2069 54.0689H41.3793V58.2413H37.2069V54.0689Z" fill="black"/>
<path d="M41.3793 54.0689H45.5517V58.2413H41.3793V54.0689Z" fill="black"/>
<path d="M87.2759 54.0689H91.4483V58.2413H87.2759V54.0689Z" fill="black"/>
<path d="M91.4483 54.0689H95.6207V58.2413H91.4483V54.0689Z" fill="black"/>
<path d="M95.6207 54.0689H99.7931V58.2413H95.6207V54.0689Z" fill="black"/>
<path d="M103.966 54.0689H108.138V58.2413H103.966V54.0689Z" fill="black"/>
<path d="M108.138 54.0689H112.31V58.2413H108.138V54.0689Z" fill="black"/>
<path d="M112.31 54.0689H116.483V58.2413H112.31V54.0689Z" fill="black"/>
<path d="M116.483 54.0689H120.655V58.2413H116.483V54.0689Z" fill="black"/>
<path d="M33.0345 58.2413H37.2069V62.4137H33.0345V58.2413Z" fill="black"/>
<path d="M49.7242 58.2413H53.8966V62.4137H49.7242V58.2413Z" fill="black"/>
<path d="M83.1035 58.2413H87.2759V62.4137H83.1035V58.2413Z" fill="black"/>
<path d="M91.4483 58.2413H95.6207V62.4137H91.4483V58.2413Z" fill="black"/>
<path d="M103.966 58.2413H108.138V62.4137H103.966V58.2413Z" fill="black"/>
<path d="M112.31 58.2413H116.483V62.4137H112.31V58.2413Z" fill="black"/>
<path d="M116.483 58.2413H120.655V62.4137H116.483V58.2413Z" fill="black"/>
<path d="M16.3448 62.4137H20.5173V66.5861H16.3448V62.4137Z" fill="black"/>
<path d="M20.5173 62.4137H24.6897V66.5861H20.5173V62.4137Z" fill="black"/>
<path d="M28.8621 62.4137H33.0345V66.5861H28.8621V62.4137Z" fill="black"/>
<path d="M33.0345 62.4137H37.2069V66.5861H33.0345V62.4137Z" fill="black"/>
<path d="M41.3793 62.4137H45.5517V66.5861H41.3793V62.4137Z" fill="black"/>
<path d="M49.7242 62.4137H53.8966V66.5861H49.7242V62.4137Z" fill="black"/>
<path d="M87.2759 62.4137H91.4483V66.5861H87.2759V62.4137Z" fill="black"/>
<path d="M91.4483 62.4137H95.6207V66.5861H91.4483V62.4137Z" fill="black"/>
<path d="M112.31 62.4137H116.483V66.5861H112.31V62.4137Z" fill="black"/>
<path d="M116.483 62.4137H120.655V66.5861H116.483V62.4137Z" fill="black"/>
<path d="M20.5173 66.5861H24.6897V70.7585H20.5173V66.5861Z" fill="black"/>
<path d="M33.0345 66.5861H37.2069V70.7585H33.0345V66.5861Z" fill="black"/>
<path d="M37.2069 66.5861H41.3793V70.7585H37.2069V66.5861Z" fill="black"/>
<path d="M83.1035 66.5861H87.2759V70.7585H83.1035V66.5861Z" fill="black"/>
<path d="M87.2759 66.5861H91.4483V70.7585H87.2759V66.5861Z" fill="black"/>
<path d="M91.4483 66.5861H95.6207V70.7585H91.4483V66.5861Z" fill="black"/>
<path d="M116.483 66.5861H120.655V70.7585H116.483V66.5861Z" fill="black"/>
<path d="M16.3448 70.7585H20.5173V74.9309H16.3448V70.7585Z" fill="black"/>
<path d="M24.6897 70.7585H28.8621V74.9309H24.6897V70.7585Z" fill="black"/>
<path d="M33.0345 70.7585H37.2069V74.9309H33.0345V70.7585Z" fill="black"/>
<path d="M37.2069 70.7585H41.3793V74.9309H37.2069V70.7585Z" fill="black"/>
<path d="M41.3793 70.7585H45.5517V74.9309H41.3793V70.7585Z" fill="black"/>
<path d="M49.7242 70.7585H53.8966V74.9309H49.7242V70.7585Z" fill="black"/>
<path d="M87.2759 70.7585H91.4483V74.9309H87.2759V70.7585Z" fill="black"/>
<path d="M99.7931 70.7585H103.966V74.9309H99.7931V70.7585Z" fill="black"/>
<path d="M116.483 70.7585H120.655V74.9309H116.483V70.7585Z" fill="black"/>
<path d="M20.5173 74.9309H24.6897V79.1033H20.5173V74.9309Z" fill="black"/>
<path d="M24.6897 74.9309H28.8621V79.1033H24.6897V74.9309Z" fill="black"/>
<path d="M33.0345 74.9309H37.2069V79.1033H33.0345V74.9309Z" fill="black"/>
<path d="M45.5517 74.9309H49.7242V79.1033H45.5517V74.9309Z" fill="black"/>
<path d="M95.6207 74.9309H99.7931V79.1033H95.6207V74.9309Z" fill="black"/>
<path d="M99.7931 74.9309H103.966V79.1033H99.7931V74.9309Z" fill="black"/>
<path d="M116.483 74.9309H120.655V79.1033H116.483V74.9309Z" fill="black"/>
<path d="M16.3448 79.1033H20.5173V83.2758H16.3448V79.1033Z" fill="black"/>
<path d="M20.5173 79.1033H24.6897V83.2758H20.5173V79.1033Z" fill="black"/>
<path d="M41.3793 79.1033H45.5517V83.2758H41.3793V79.1033Z" fill="black"/>
<path d="M45.5517 79.1033H49.7242V83.2758H45.5517V79.1033Z" fill="black"/>
<path d="M49.7242 79.1033H53.8966V83.2758H49.7242V79.1033Z" fill="black"/>
<path d="M74.7586 79.1033H78.9311V83.2758H74.7586V79.1033Z" fill="black"/>
<path d="M83.1035 79.1033H87.2759V83.2758H83.1035V79.1033Z" fill="black"/>
<path d="M87.2759 79.1033H91.4483V83.2758H87.2759V79.1033Z" fill="black"/>
<path d="M91.4483 79.1033H95.6207V83.2758H91.4483V79.1033Z" fill="black"/>
<path d="M95.6207 79.1033H99.7931V83.2758H95.6207V79.1033Z" fill="black"/>
<path d="M99.7931 79.1033H103.966V83.2758H99.7931V79.1033Z" fill="black"/>
<path d="M108.138 79.1033H112.31V83.2758H108.138V79.1033Z" fill="black"/>
<path d="M112.31 79.1033H116.483V83.2758H112.31V79.1033Z" fill="black"/>
<path d="M116.483 79.1033H120.655V83.2758H116.483V79.1033Z" fill="black"/>
<path d="M49.7242 83.2758H53.8966V87.4482H49.7242V83.2758Z" fill="black"/>
<path d="M58.069 83.2758H62.2414V87.4482H58.069V83.2758Z" fill="black"/>
<path d="M66.4138 83.2758H70.5862V87.4482H66.4138V83.2758Z" fill="black"/>
<path d="M78.9311 83.2758H83.1035V87.4482H78.9311V83.2758Z" fill="black"/>
<path d="M83.1035 83.2758H87.2759V87.4482H83.1035V83.2758Z" fill="black"/>
<path d="M99.7931 83.2758H103.966V87.4482H99.7931V83.2758Z" fill="black"/>
<path d="M108.138 83.2758H112.31V87.4482H108.138V83.2758Z" fill="black"/>
<path d="M112.31 83.2758H116.483V87.4482H112.31V83.2758Z" fill="black"/>
<path d="M116.483 83.2758H120.655V87.4482H116.483V83.2758Z" fill="black"/>
<path d="M16.3448 87.4482H20.5173V91.6206H16.3448V87.4482Z" fill="black"/>
<path d="M20.5173 87.4482H24.6897V91.6206H20.5173V87.4482Z" fill="black"/>
<path d="M24.6897 87.4482H28.8621V91.6206H24.6897V87.4482Z" fill="black"/>
<path d="M28.8621 87.4482H33.0345V91.6206H28.8621V87.4482Z" fill="black"/>
<path d="M33.0345 87.4482H37.2069V91.6206H33.0345V87.4482Z" fill="black"/>
<path d="M37.2069 87.4482H41.3793V91.6206H37.2069V87.4482Z" fill="black"/>
<path d="M41.3793 87.4482H45.5517V91.6206H41.3793V87.4482Z" fill="black"/>
<path d="M58.069 87.4482H62.2414V91.6206H58.069V87.4482Z" fill="black"/>
<path d="M62.2414 87.4482H66.4138V91.6206H62.2414V87.4482Z" fill="black"/>
<path d="M74.7586 87.4482H78.9311V91.6206H74.7586V87.4482Z" fill="black"/>
<path d="M83.1035 87.4482H87.2759V91.6206H83.1035V87.4482Z" fill="black"/>
<path d="M91.4483 87.4482H95.6207V91.6206H91.4483V87.4482Z" fill="black"/>
<path d="M99.7931 87.4482H103.966V91.6206H99.7931V87.4482Z" fill="black"/>
<path d="M112.31 87.4482H116.483V91.6206H112.31V87.4482Z" fill="black"/>
<path d="M116.483 87.4482H120.655V91.6206H116.483V87.4482Z" fill="black"/>
<path d="M16.3448 91.6206H20.5173V95.793H16.3448V91.6206Z" fill="black"/>
<path d="M41.3793 91.6206H45.5517V95.793H41.3793V91.6206Z" fill="black"/>
<path d="M53.8966 91.6206H58.069V95.793H53.8966V91.6206Z" fill="black"/>
<path d="M62.2414 91.6206H66.4138V95.793H62.2414V91.6206Z" fill="black"/>
<path d="M74.7586 91.6206H78.9311V95.793H74.7586V91.6206Z" fill="black"/>
<path d="M83.1035 91.6206H87.2759V95.793H83.1035V91.6206Z" fill="black"/>
<path d="M99.7931 91.6206H103.966V95.793H99.7931V91.6206Z" fill="black"/>
<path d="M108.138 91.6206H112.31V95.793H108.138V91.6206Z" fill="black"/>
<path d="M112.31 91.6206H116.483V95.793H112.31V91.6206Z" fill="black"/>
<path d="M16.3448 95.793H20.5173V99.9654H16.3448V95.793Z" fill="black"/>
<path d="M24.6897 95.793H28.8621V99.9654H24.6897V95.793Z" fill="black"/>
<path d="M28.8621 95.793H33.0345V99.9654H28.8621V95.793Z" fill="black"/>
<path d="M33.0345 95.793H37.2069V99.9654H33.0345V95.793Z" fill="black"/>
<path d="M41.3793 95.793H45.5517V99.9654H41.3793V95.793Z" fill="black"/>
<path d="M53.8966 95.793H58.069V99.9654H53.8966V95.793Z" fill="black"/>
<path d="M58.069 95.793H62.2414V99.9654H58.069V95.793Z" fill="black"/>
<path d="M66.4138 95.793H70.5862V99.9654H66.4138V95.793Z" fill="black"/>
<path d="M78.9311 95.793H83.1035V99.9654H78.9311V95.793Z" fill="black"/>
<path d="M83.1035 95.793H87.2759V99.9654H83.1035V95.793Z" fill="black"/>
<path d="M87.2759 95.793H91.4483V99.9654H87.2759V95.793Z" fill="black"/>
<path d="M91.4483 95.793H95.6207V99.9654H91.4483V95.793Z" fill="black"/>
<path d="M95.6207 95.793H99.7931V99.9654H95.6207V95.793Z" fill="black"/>
<path d="M99.7931 95.793H103.966V99.9654H99.7931V95.793Z" fill="black"/>
<path d="M16.3448 99.9654H20.5173V104.138H16.3448V99.9654Z" fill="black"/>
<path d="M24.6897 99.9654H28.8621V104.138H24.6897V99.9654Z" fill="black"/>
<path d="M28.8621 99.9654H33.0345V104.138H28.8621V99.9654Z" fill="black"/>
<path d="M33.0345 99.9654H37.2069V104.138H33.0345V99.9654Z" fill="black"/>
<path d="M41.3793 99.9654H45.5517V104.138H41.3793V99.9654Z" fill="black"/>
<path d="M49.7242 99.9654H53.8966V104.138H49.7242V99.9654Z" fill="black"/>
<path d="M53.8966 99.9654H58.069V104.138H53.8966V99.9654Z" fill="black"/>
<path d="M74.7586 99.9654H78.9311V104.138H74.7586V99.9654Z" fill="black"/>
<path d="M78.9311 99.9654H83.1035V104.138H78.9311V99.9654Z" fill="black"/>
<path d="M83.1035 99.9654H87.2759V104.138H83.1035V99.9654Z" fill="black"/>
<path d="M99.7931 99.9654H103.966V104.138H99.7931V99.9654Z" fill="black"/>
<path d="M103.966 99.9654H108.138V104.138H103.966V99.9654Z" fill="black"/>
<path d="M112.31 99.9654H116.483V104.138H112.31V99.9654Z" fill="black"/>
<path d="M16.3448 104.138H20.5173V108.31H16.3448V104.138Z" fill="black"/>
<path d="M24.6897 104.138H28.8621V108.31H24.6897V104.138Z" fill="black"/>
<path d="M28.8621 104.138H33.0345V108.31H28.8621V104.138Z" fill="black"/>
<path d="M33.0345 104.138H37.2069V108.31H33.0345V104.138Z" fill="black"/>
<path d="M41.3793 104.138H45.5517V108.31H41.3793V104.138Z" fill="black"/>
<path d="M53.8966 104.138H58.069V108.31H53.8966V104.138Z" fill="black"/>
<path d="M58.069 104.138H62.2414V108.31H58.069V104.138Z" fill="black"/>
<path d="M66.4138 104.138H70.5862V108.31H66.4138V104.138Z" fill="black"/>
<path d="M78.9311 104.138H83.1035V108.31H78.9311V104.138Z" fill="black"/>
<path d="M83.1035 104.138H87.2759V108.31H83.1035V104.138Z" fill="black"/>
<path d="M87.2759 104.138H91.4483V108.31H87.2759V104.138Z" fill="black"/>
<path d="M99.7931 104.138H103.966V108.31H99.7931V104.138Z" fill="black"/>
<path d="M103.966 104.138H108.138V108.31H103.966V104.138Z" fill="black"/>
<path d="M116.483 104.138H120.655V108.31H116.483V104.138Z" fill="black"/>
<path d="M16.3448 108.31H20.5173V112.483H16.3448V108.31Z" fill="black"/>
<path d="M41.3793 108.31H45.5517V112.483H41.3793V108.31Z" fill="black"/>
<path d="M58.069 108.31H62.2414V112.483H58.069V108.31Z" fill="black"/>
<path d="M62.2414 108.31H66.4138V112.483H62.2414V108.31Z" fill="black"/>
<path d="M66.4138 108.31H70.5862V112.483H66.4138V108.31Z" fill="black"/>
<path d="M70.5862 108.31H74.7586V112.483H70.5862V108.31Z" fill="black"/>
<path d="M74.7586 108.31H78.9311V112.483H74.7586V108.31Z" fill="black"/>
<path d="M78.9311 108.31H83.1035V112.483H78.9311V108.31Z" fill="black"/>
<path d="M87.2759 108.31H91.4483V112.483H87.2759V108.31Z" fill="black"/>
<path d="M99.7931 108.31H103.966V112.483H99.7931V108.31Z" fill="black"/>
<path d="M16.3448 112.483H20.5173V116.655H16.3448V112.483Z" fill="black"/>
<path d="M20.5173 112.483H24.6897V116.655H20.5173V112.483Z" fill="black"/>
<path d="M24.6897 112.483H28.8621V116.655H24.6897V112.483Z" fill="black"/>
<path d="M28.8621 112.483H33.0345V116.655H28.8621V112.483Z" fill="black"/>
<path d="M33.0345 112.483H37.2069V116.655H33.0345V112.483Z" fill="black"/>
<path d="M37.2069 112.483H41.3793V116.655H37.2069V112.483Z" fill="black"/>
<path d="M41.3793 112.483H45.5517V116.655H41.3793V112.483Z" fill="black"/>
<path d="M53.8966 112.483H58.069V116.655H53.8966V112.483Z" fill="black"/>
<path d="M58.069 112.483H62.2414V116.655H58.069V112.483Z" fill="black"/>
<path d="M62.2414 112.483H66.4138V116.655H62.2414V112.483Z" fill="black"/>
<path d="M70.5862 112.483H74.7586V116.655H70.5862V112.483Z" fill="black"/>
<path d="M83.1035 112.483H87.2759V116.655H83.1035V112.483Z" fill="black"/>
<path d="M91.4483 112.483H95.6207V116.655H91.4483V112.483Z" fill="black"/>
<path d="M112.31 112.483H116.483V116.655H112.31V112.483Z" fill="black"/>
<path d="M116.483 112.483H120.655V116.655H116.483V112.483Z" fill="black"/>
</g>
<defs>
<filter id="filter0_d_2_470" x="0" y="0" width="137" height="137" filterUnits="userSpaceOnUse" color-interpolation-filters="sRGB">
<feFlood flood-opacity="0" result="BackgroundImageFix"/>
<feColorMatrix in="SourceAlpha" type="matrix" values="0 0 0 0 0 0 0 0 0 0 0 0 0 0 0 0 0 0 127 0" result="hardAlpha"/>
<feOffset dy="4"/>
<feGaussianBlur stdDeviation="4"/>
<feComposite in2="hardAlpha" operator="out"/>
<feColorMatrix type="matrix" values="0 0 0 0 0 0 0 0 0 0 0 0 0 0 0 0 0 0 0.1 0"/>
<feBlend mode="normal" in2="BackgroundImageFix" result="effect1_dropShadow_2_470"/>
<feBlend mode="normal" in="SourceGraphic" in2="effect1_dropShadow_2_470" result="shape"/>
</filter>
</defs>
</svg>
