<svg width="68" height="68" viewBox="0 0 68 68" fill="none" xmlns="http://www.w3.org/2000/svg">
<g clip-path="url(#clip0_1_1295)">
<path d="M25.5 42.5L42.5 25.5" stroke="#EE5D24" stroke-width="1.83333" stroke-linecap="round" stroke-linejoin="round"/>
<path d="M26.9167 28.3333C27.6991 28.3333 28.3333 27.6991 28.3333 26.9167C28.3333 26.1343 27.6991 25.5 26.9167 25.5C26.1343 25.5 25.5 26.1343 25.5 26.9167C25.5 27.6991 26.1343 28.3333 26.9167 28.3333Z" fill="#EE5D24" stroke="#EE5D24" stroke-width="1.83333" stroke-linecap="round" stroke-linejoin="round"/>
<path d="M41.0834 42.5C41.8658 42.5 42.5 41.8658 42.5 41.0834C42.5 40.301 41.8658 39.6667 41.0834 39.6667C40.301 39.6667 39.6667 40.301 39.6667 41.0834C39.6667 41.8658 40.301 42.5 41.0834 42.5Z" fill="#EE5D24" stroke="#EE5D24" stroke-width="1.83333" stroke-linecap="round" stroke-linejoin="round"/>
<path d="M14.1667 20.4C14.1667 18.7468 14.8234 17.1614 15.9924 15.9924C17.1614 14.8234 18.7468 14.1667 20.4 14.1667H23.2334C24.8792 14.1658 26.4579 13.5139 27.625 12.3534L29.6084 10.37C30.1876 9.78749 30.8763 9.32521 31.6349 9.00976C32.3934 8.69431 33.2068 8.53192 34.0284 8.53192C34.8499 8.53192 35.6633 8.69431 36.4218 9.00976C37.1804 9.32521 37.8691 9.78749 38.4484 10.37L40.4317 12.3534C41.5988 13.5139 43.1775 14.1658 44.8234 14.1667H47.6567C49.3099 14.1667 50.8953 14.8234 52.0643 15.9924C53.2333 17.1614 53.89 18.7468 53.89 20.4V23.2334C53.891 24.8792 54.5428 26.4579 55.7034 27.625L57.6867 29.6084C58.2692 30.1876 58.7315 30.8763 59.047 31.6349C59.3624 32.3934 59.5248 33.2068 59.5248 34.0284C59.5248 34.8499 59.3624 35.6633 59.047 36.4218C58.7315 37.1804 58.2692 37.8691 57.6867 38.4484L55.7034 40.4317C54.5428 41.5988 53.891 43.1775 53.89 44.8234V47.6567C53.89 49.3099 53.2333 50.8953 52.0643 52.0643C50.8953 53.2333 49.3099 53.89 47.6567 53.89H44.8234C43.1775 53.891 41.5988 54.5428 40.4317 55.7034L38.4484 57.6867C37.8691 58.2692 37.1804 58.7315 36.4218 59.047C35.6633 59.3624 34.8499 59.5248 34.0284 59.5248C33.2068 59.5248 32.3934 59.3624 31.6349 59.047C30.8763 58.7315 30.1876 58.2692 29.6084 57.6867L27.625 55.7034C26.4579 54.5428 24.8792 53.891 23.2334 53.89H20.4C18.7468 53.89 17.1614 53.2333 15.9924 52.0643C14.8234 50.8953 14.1667 49.3099 14.1667 47.6567V44.8234C14.1658 43.1775 13.5139 41.5988 12.3534 40.4317L10.37 38.4484C9.78749 37.8691 9.32521 37.1804 9.00976 36.4218C8.69431 35.6633 8.53192 34.8499 8.53192 34.0284C8.53192 33.2068 8.69431 32.3934 9.00976 31.6349C9.32521 30.8763 9.78749 30.1876 10.37 29.6084L12.3534 27.625C13.5139 26.4579 14.1658 24.8792 14.1667 23.2334V20.4Z" stroke="#EE5D24" stroke-width="1.83333" stroke-linecap="round" stroke-linejoin="round"/>
</g>
<defs>
<clipPath id="clip0_1_1295">
<rect width="68" height="68" fill="white"/>
</clipPath>
</defs>
</svg>
